<svg width="276" height="309" viewBox="0 0 276 309" fill="none" xmlns="http://www.w3.org/2000/svg">
<g opacity="0.2" filter="url(#filter0_f_1_2501)">
<ellipse cx="138.294" cy="277.973" rx="25.5285" ry="5.89118" fill="#191919"/>
</g>
<path d="M49.9247 190.497C-18.3563 134.784 7.44648 80.895 1.46821 6.71574C1.19094 3.27534 4.13132 0.411072 7.51922 1.0715C48.2322 9.00799 116.974 40.8599 131.724 118.892C138.384 154.131 135.002 202.435 134.939 262.305C134.937 264.034 132.72 264.755 131.684 263.37C119.268 246.774 114.932 243.539 49.9247 190.497Z" fill="url(#paint0_linear_1_2501)"/>
<path d="M45.768 184.627C-12.7661 136.617 6.76843 69.321 4.41271 9.25432C4.28064 5.8867 7.1883 3.16733 10.4905 3.8419C48.6555 11.6382 115.807 44.5637 129.454 116.766C135.599 149.274 135.158 205.411 135.249 261.33C135.252 263.098 132.925 263.823 131.881 262.395C118.558 244.189 101.629 230.444 45.768 184.627Z" fill="url(#paint1_linear_1_2501)"/>
<g opacity="0.6">
<path d="M135.275 262.472L135.112 198.542C135.09 189.984 133.245 181.426 129.06 173.958C80.2298 86.8145 4.4339 105.618 4.4339 105.618C4.4339 105.618 5.529 153.536 44.905 184.439C67.4195 202.109 74.1013 209.603 96.611 227.279C114.55 241.366 126.204 255.957 131.668 263.585C132.727 265.064 135.28 264.29 135.275 262.472Z" fill="url(#paint2_linear_1_2501)"/>
<path d="M135.275 262.472L135.112 198.542C135.09 189.984 133.245 181.426 129.06 173.958C80.2298 86.8145 4.4339 105.618 4.4339 105.618C4.4339 105.618 5.529 153.536 44.905 184.439C67.4195 202.109 74.1013 209.603 96.611 227.279C114.55 241.366 126.204 255.957 131.668 263.585C132.727 265.064 135.28 264.29 135.275 262.472Z" fill="url(#paint3_radial_1_2501)"/>
</g>
<path d="M132.913 182.996C111.658 137.134 65.3197 97.3742 12.4742 104.732C11.59 104.843 10.6574 104.605 9.79154 104.74C10.6576 104.607 11.5918 104.848 12.4762 104.738C64.3675 98.7875 110.973 138.382 129.995 184.37C131.139 186.894 134.134 193.231 134.134 193.231L133.306 187.897C133.306 187.897 134.176 185.508 132.913 182.996Z" fill="url(#paint4_linear_1_2501)"/>
<path d="M133.791 182.387C112.536 136.525 66.2095 97.3693 13.364 104.727C12.4798 104.838 11.5472 104.6 10.6814 104.735C11.5474 104.602 12.4816 104.843 13.3661 104.733C66.3811 97.4974 111.852 137.773 130.874 183.761C132.018 186.285 135.013 192.622 135.013 192.622L134.185 187.288C134.185 187.288 135.055 184.899 133.791 182.387Z" fill="#3F3F3F"/>
<path d="M1.81445 6.7182C1.53909 3.27765 4.47928 0.41324 7.86719 1.07367C48.5802 9.0102 117.322 40.8627 132.071 118.895C138.719 154.066 136.339 204.264 136.323 264.102C136.323 265.863 134.04 266.558 133.041 265.107C132.401 264.177 131.781 263.285 131.174 262.421C128.445 258.693 124.465 253.628 119.22 247.909C109.211 237.75 92.1416 223.91 50.6162 190.831C-18.6864 135.623 7.75513 80.9451 1.81445 6.7182Z" fill="url(#paint5_radial_1_2501)"/>
<path d="M224.617 189.37C291.341 137.976 271.095 84.2574 273.678 5.10922C273.764 2.46575 271.938 0.115256 269.293 0.148817C239.602 0.525597 154.437 40.5557 144.985 119.476C140.516 156.788 138.94 202.998 140.383 262.939C140.422 264.567 142.433 265.29 143.482 264.045C158.428 246.305 160.618 238.665 224.617 189.37Z" fill="url(#paint6_radial_1_2501)"/>
<path d="M224.617 189.37C291.341 137.976 271.095 84.2574 273.678 5.10922C273.764 2.46575 271.938 0.115256 269.293 0.148817C239.602 0.525597 154.437 40.5557 144.985 119.476C140.516 156.788 138.94 202.998 140.383 262.939C140.422 264.567 142.433 265.29 143.482 264.045C158.428 246.305 160.618 238.665 224.617 189.37Z" fill="url(#paint7_radial_1_2501)"/>
<path d="M230.404 182.617C288.938 134.607 269.403 67.3111 271.759 7.24441C271.891 3.87679 268.984 1.15741 265.681 1.83198C227.516 9.6283 160.365 42.5538 146.718 114.756C140.573 147.264 141.014 203.401 140.923 259.32C140.92 261.089 143.247 261.813 144.291 260.385C157.614 242.179 174.543 228.434 230.404 182.617Z" fill="url(#paint8_linear_1_2501)"/>
<path d="M140.905 261.072L141.07 196.533C141.092 187.975 142.937 179.417 147.121 171.949C195.952 84.8052 271.748 103.609 271.748 103.609C271.748 103.609 270.255 152.623 230.879 183.526C208.364 201.196 203.435 204.998 180.764 224.014C162.721 239.148 150.077 254.625 144.348 262.198C143.281 263.609 140.9 262.841 140.905 261.072Z" fill="url(#paint9_linear_1_2501)"/>
<path d="M140.905 261.072L141.07 196.533C141.092 187.975 142.937 179.417 147.121 171.949C195.952 84.8052 271.748 103.609 271.748 103.609C271.748 103.609 270.255 152.623 230.879 183.526C208.364 201.196 203.435 204.998 180.764 224.014C162.721 239.148 150.077 254.625 144.348 262.198C143.281 263.609 140.9 262.841 140.905 261.072Z" fill="url(#paint10_radial_1_2501)"/>
<path d="M143.271 180.986C164.526 135.124 210.864 95.3644 263.709 102.722C264.594 102.833 265.526 102.596 266.392 102.73C265.526 102.597 264.592 102.838 263.707 102.729C211.816 96.7776 165.211 136.372 146.188 182.36C145.045 184.884 142.049 191.221 142.049 191.221L142.877 185.887C142.877 185.887 142.007 183.498 143.271 180.986Z" fill="url(#paint11_linear_1_2501)"/>
<path d="M143.189 179.842C164.444 133.98 209.964 95.3566 262.81 102.714C263.694 102.825 264.627 102.588 265.493 102.722C264.627 102.589 263.692 102.831 262.808 102.721C209.793 95.4848 164.322 135.761 145.3 181.748C144.156 184.272 141.161 190.609 141.161 190.609L141.16 185.827C141.16 185.827 141.925 182.353 143.189 179.842Z" fill="url(#paint12_linear_1_2501)"/>
<g style="mix-blend-mode:multiply">
<mask id="mask0_1_2501" style="mask-type:alpha" maskUnits="userSpaceOnUse" x="1" y="0" width="274" height="266">
<path d="M49.9247 190.496C-18.3563 134.784 7.44648 80.8944 1.46821 6.71513C1.19094 3.27473 4.13132 0.410462 7.51922 1.07089C48.2322 9.00738 116.974 40.8593 131.724 118.892C138.384 154.13 135.002 202.434 134.939 262.305C134.937 264.033 132.72 264.754 131.684 263.37C119.268 246.773 114.932 243.538 49.9247 190.496Z" fill="url(#paint13_linear_1_2501)"/>
<path d="M45.768 184.626C-12.7661 136.616 6.76843 69.3204 4.41271 9.25371C4.28064 5.88609 7.1883 3.16672 10.4905 3.84129C48.6555 11.6376 115.807 44.5631 129.454 116.766C135.599 149.273 135.158 205.41 135.249 261.329C135.252 263.098 132.925 263.822 131.881 262.395C118.558 244.189 101.629 230.444 45.768 184.626Z" fill="url(#paint14_linear_1_2501)"/>
<g opacity="0.6">
<path d="M135.275 262.472L135.112 198.542C135.09 189.984 133.245 181.426 129.06 173.959C80.2298 86.8145 4.4339 105.618 4.4339 105.618C4.4339 105.618 5.529 153.536 44.905 184.439C67.4195 202.109 74.1013 209.603 96.611 227.279C114.55 241.366 126.204 255.957 131.668 263.585C132.727 265.064 135.28 264.29 135.275 262.472Z" fill="url(#paint15_linear_1_2501)"/>
<path d="M135.275 262.472L135.112 198.542C135.09 189.984 133.245 181.426 129.06 173.959C80.2298 86.8145 4.4339 105.618 4.4339 105.618C4.4339 105.618 5.529 153.536 44.905 184.439C67.4195 202.109 74.1013 209.603 96.611 227.279C114.55 241.366 126.204 255.957 131.668 263.585C132.727 265.064 135.28 264.29 135.275 262.472Z" fill="url(#paint16_radial_1_2501)"/>
</g>
<path d="M132.913 182.996C111.658 137.134 65.3197 97.3736 12.4742 104.731C11.59 104.842 10.6574 104.605 9.79154 104.739C10.6576 104.606 11.5918 104.848 12.4762 104.738C64.3675 98.7869 110.973 138.382 129.995 184.369C131.139 186.893 134.134 193.23 134.134 193.23L133.306 187.896C133.306 187.896 134.176 185.507 132.913 182.996Z" fill="url(#paint17_linear_1_2501)"/>
<path d="M133.791 182.387C112.536 136.525 66.2095 97.3693 13.364 104.727C12.4798 104.838 11.5472 104.601 10.6814 104.735C11.5474 104.602 12.4816 104.843 13.3661 104.734C66.3811 97.4975 111.852 137.773 130.874 183.761C132.018 186.285 135.013 192.622 135.013 192.622L134.185 187.288C134.185 187.288 135.055 184.899 133.791 182.387Z" fill="#3F3F3F"/>
<path d="M1.81445 6.71823C1.53909 3.27768 4.47928 0.41327 7.86719 1.0737C48.5802 9.01023 117.322 40.8627 132.071 118.895C138.719 154.066 136.339 204.264 136.323 264.102C136.323 265.863 134.04 266.558 133.041 265.107C132.401 264.177 131.781 263.285 131.174 262.421C128.445 258.693 124.465 253.628 119.22 247.909C109.211 237.75 92.1416 223.91 50.6162 190.831C-18.6864 135.623 7.75514 80.9451 1.81445 6.71823Z" fill="url(#paint18_radial_1_2501)"/>
<path d="M224.617 189.369C291.341 137.975 271.095 84.2568 273.678 5.10861C273.764 2.46514 271.938 0.114645 269.293 0.148207C239.602 0.524987 154.437 40.555 144.985 119.475C140.516 156.788 138.94 202.997 140.383 262.939C140.422 264.567 142.433 265.29 143.482 264.044C158.428 246.305 160.618 238.664 224.617 189.369Z" fill="url(#paint19_radial_1_2501)"/>
<path d="M224.617 189.369C291.341 137.975 271.095 84.2568 273.678 5.10861C273.764 2.46514 271.938 0.114645 269.293 0.148207C239.602 0.524987 154.437 40.555 144.985 119.475C140.516 156.788 138.94 202.997 140.383 262.939C140.422 264.567 142.433 265.29 143.482 264.044C158.428 246.305 160.618 238.664 224.617 189.369Z" fill="url(#paint20_radial_1_2501)"/>
<path d="M230.404 182.616C288.938 134.606 269.403 67.3105 271.759 7.24386C271.891 3.87624 268.984 1.15687 265.681 1.83143C227.516 9.62775 160.365 42.5533 146.718 114.756C140.573 147.263 141.014 203.4 140.923 259.319C140.92 261.088 143.247 261.812 144.291 260.385C157.614 242.179 174.543 228.434 230.404 182.616Z" fill="url(#paint21_linear_1_2501)"/>
<path d="M140.905 261.071L141.07 196.532C141.092 187.975 142.937 179.416 147.121 171.949C195.952 84.8046 271.748 103.608 271.748 103.608C271.748 103.608 270.255 152.622 230.879 183.526C208.364 201.196 203.435 204.997 180.764 224.013C162.721 239.148 150.077 254.624 144.348 262.197C143.281 263.609 140.9 262.841 140.905 261.071Z" fill="url(#paint22_linear_1_2501)"/>
<path d="M140.905 261.071L141.07 196.532C141.092 187.975 142.937 179.416 147.121 171.949C195.952 84.8046 271.748 103.608 271.748 103.608C271.748 103.608 270.255 152.622 230.879 183.526C208.364 201.196 203.435 204.997 180.764 224.013C162.721 239.148 150.077 254.624 144.348 262.197C143.281 263.609 140.9 262.841 140.905 261.071Z" fill="url(#paint23_radial_1_2501)"/>
<path d="M143.271 180.986C164.526 135.125 210.864 95.3644 263.709 102.722C264.594 102.833 265.526 102.596 266.392 102.73C265.526 102.597 264.592 102.838 263.707 102.729C211.816 96.7776 165.211 136.373 146.188 182.36C145.045 184.884 142.049 191.221 142.049 191.221L142.877 185.887C142.877 185.887 142.007 183.498 143.271 180.986Z" fill="url(#paint24_linear_1_2501)"/>
<path d="M143.189 179.841C164.444 133.979 209.964 95.356 262.81 102.713C263.694 102.825 264.627 102.587 265.493 102.722C264.627 102.588 263.692 102.83 262.808 102.72C209.793 95.4842 164.322 135.76 145.3 181.748C144.156 184.272 141.161 190.609 141.161 190.609L141.16 185.827C141.16 185.827 141.925 182.352 143.189 179.841Z" fill="url(#paint25_linear_1_2501)"/>
</mask>
<g mask="url(#mask0_1_2501)">
<rect x="-13.0918" y="-6.09329" width="331.216" height="306.577" fill="url(#paint26_linear_1_2501)"/>
</g>
</g>
<defs>
<filter id="filter0_f_1_2501" x="87.6299" y="246.946" width="101.328" height="62.0538" filterUnits="userSpaceOnUse" color-interpolation-filters="sRGB">
<feFlood flood-opacity="0" result="BackgroundImageFix"/>
<feBlend mode="normal" in="SourceGraphic" in2="BackgroundImageFix" result="shape"/>
<feGaussianBlur stdDeviation="12.5679" result="effect1_foregroundBlur_1_2501"/>
</filter>
<linearGradient id="paint0_linear_1_2501" x1="6.38167" y1="-6.30216" x2="139.817" y2="276.001" gradientUnits="userSpaceOnUse">
<stop stop-color="#F0F0F0"/>
<stop offset="1" stop-color="#686868"/>
</linearGradient>
<linearGradient id="paint1_linear_1_2501" x1="-16.31" y1="18.2231" x2="131.687" y2="240.773" gradientUnits="userSpaceOnUse">
<stop stop-color="#F2F2F2"/>
<stop offset="0.226398" stop-color="#D4D4D4"/>
<stop offset="0.730106" stop-color="#404040"/>
<stop offset="1" stop-color="#343434"/>
</linearGradient>
<linearGradient id="paint2_linear_1_2501" x1="29.6766" y1="101.139" x2="143.677" y2="248.185" gradientUnits="userSpaceOnUse">
<stop stop-color="#D0CFCF"/>
<stop offset="0.270601" stop-color="#D6D6D6"/>
<stop offset="1" stop-color="#888888"/>
</linearGradient>
<radialGradient id="paint3_radial_1_2501" cx="0" cy="0" r="1" gradientTransform="matrix(12.5288 136.754 102.831 -9.27613 25.7578 110.575)" gradientUnits="userSpaceOnUse">
<stop stop-color="#DBDBDB"/>
<stop offset="1" stop-color="#CBCBCA" stop-opacity="0"/>
</radialGradient>
<linearGradient id="paint4_linear_1_2501" x1="66.1693" y1="110.949" x2="73.6887" y2="195.59" gradientUnits="userSpaceOnUse">
<stop stop-color="#C8C8C8"/>
<stop offset="1" stop-color="#828282"/>
</linearGradient>
<radialGradient id="paint5_radial_1_2501" cx="0" cy="0" r="1" gradientTransform="matrix(58.1694 134.093 -114.549 48.9302 11.4319 88.3807)" gradientUnits="userSpaceOnUse">
<stop stop-color="white"/>
<stop offset="1" stop-color="#A5A5A5" stop-opacity="0"/>
</radialGradient>
<radialGradient id="paint6_radial_1_2501" cx="0" cy="0" r="1" gradientTransform="matrix(-66.2239 -34.6325 -155.403 292.592 273.85 67.0806)" gradientUnits="userSpaceOnUse">
<stop stop-color="#3A3A3A"/>
<stop offset="1" stop-color="white"/>
</radialGradient>
<radialGradient id="paint7_radial_1_2501" cx="0" cy="0" r="1" gradientTransform="matrix(-34.9018 169.611 193.488 39.2032 180.779 43.9923)" gradientUnits="userSpaceOnUse">
<stop stop-color="white"/>
<stop offset="1" stop-color="#292929" stop-opacity="0.75"/>
</radialGradient>
<linearGradient id="paint8_linear_1_2501" x1="292.482" y1="16.2132" x2="111.631" y2="220.079" gradientUnits="userSpaceOnUse">
<stop stop-color="#696969"/>
<stop offset="0.269894" stop-color="#868685"/>
<stop offset="0.773602" stop-color="#BBB9B9"/>
</linearGradient>
<linearGradient id="paint9_linear_1_2501" x1="246.505" y1="99.1302" x2="142.471" y2="246.975" gradientUnits="userSpaceOnUse">
<stop stop-color="#8A8888"/>
<stop offset="0.270601" stop-color="#666565"/>
<stop offset="1" stop-color="#424141"/>
</linearGradient>
<radialGradient id="paint10_radial_1_2501" cx="0" cy="0" r="1" gradientTransform="matrix(-12.6897 135.63 -101.986 -9.3952 250.585 109.689)" gradientUnits="userSpaceOnUse">
<stop stop-color="#898887"/>
<stop offset="1" stop-color="#646060" stop-opacity="0"/>
</radialGradient>
<linearGradient id="paint11_linear_1_2501" x1="141.389" y1="189.38" x2="205.418" y2="99.5508" gradientUnits="userSpaceOnUse">
<stop stop-color="#3B3B3B"/>
<stop offset="1" stop-color="#484848" stop-opacity="0"/>
</linearGradient>
<linearGradient id="paint12_linear_1_2501" x1="142.276" y1="184.06" x2="204.544" y2="99.5528" gradientUnits="userSpaceOnUse">
<stop stop-color="#DEDEDE"/>
<stop offset="1" stop-color="#999999"/>
</linearGradient>
<linearGradient id="paint13_linear_1_2501" x1="6.38167" y1="-6.30277" x2="139.817" y2="276" gradientUnits="userSpaceOnUse">
<stop stop-color="#F0F0F0"/>
<stop offset="1" stop-color="#686868"/>
</linearGradient>
<linearGradient id="paint14_linear_1_2501" x1="-16.31" y1="18.2225" x2="131.687" y2="240.773" gradientUnits="userSpaceOnUse">
<stop stop-color="#F2F2F2"/>
<stop offset="0.226398" stop-color="#D4D4D4"/>
<stop offset="0.730106" stop-color="#404040"/>
<stop offset="1" stop-color="#343434"/>
</linearGradient>
<linearGradient id="paint15_linear_1_2501" x1="29.6766" y1="101.139" x2="143.677" y2="248.185" gradientUnits="userSpaceOnUse">
<stop stop-color="#D0CFCF"/>
<stop offset="0.270601" stop-color="#D6D6D6"/>
<stop offset="1" stop-color="#888888"/>
</linearGradient>
<radialGradient id="paint16_radial_1_2501" cx="0" cy="0" r="1" gradientTransform="matrix(12.5288 136.754 102.831 -9.27613 25.7578 110.575)" gradientUnits="userSpaceOnUse">
<stop stop-color="#DBDBDB"/>
<stop offset="1" stop-color="#CBCBCA" stop-opacity="0"/>
</radialGradient>
<linearGradient id="paint17_linear_1_2501" x1="66.1693" y1="110.948" x2="73.6887" y2="195.589" gradientUnits="userSpaceOnUse">
<stop stop-color="#C8C8C8"/>
<stop offset="1" stop-color="#828282"/>
</linearGradient>
<radialGradient id="paint18_radial_1_2501" cx="0" cy="0" r="1" gradientTransform="matrix(58.1694 134.093 -114.549 48.9302 11.4319 88.3808)" gradientUnits="userSpaceOnUse">
<stop stop-color="white"/>
<stop offset="1" stop-color="#A5A5A5" stop-opacity="0"/>
</radialGradient>
<radialGradient id="paint19_radial_1_2501" cx="0" cy="0" r="1" gradientTransform="matrix(-66.2239 -34.6325 -155.403 292.592 273.85 67.08)" gradientUnits="userSpaceOnUse">
<stop stop-color="#3A3A3A"/>
<stop offset="1" stop-color="white"/>
</radialGradient>
<radialGradient id="paint20_radial_1_2501" cx="0" cy="0" r="1" gradientTransform="matrix(-34.9018 169.611 193.488 39.2032 180.779 43.9916)" gradientUnits="userSpaceOnUse">
<stop stop-color="white"/>
<stop offset="1" stop-color="#292929" stop-opacity="0.75"/>
</radialGradient>
<linearGradient id="paint21_linear_1_2501" x1="292.482" y1="16.2126" x2="111.631" y2="220.079" gradientUnits="userSpaceOnUse">
<stop stop-color="#696969"/>
<stop offset="0.269894" stop-color="#868685"/>
<stop offset="0.773602" stop-color="#BBB9B9"/>
</linearGradient>
<linearGradient id="paint22_linear_1_2501" x1="246.505" y1="99.1296" x2="142.471" y2="246.974" gradientUnits="userSpaceOnUse">
<stop stop-color="#8A8888"/>
<stop offset="0.270601" stop-color="#666565"/>
<stop offset="1" stop-color="#424141"/>
</linearGradient>
<radialGradient id="paint23_radial_1_2501" cx="0" cy="0" r="1" gradientTransform="matrix(-12.6897 135.63 -101.986 -9.3952 250.585 109.689)" gradientUnits="userSpaceOnUse">
<stop stop-color="#898887"/>
<stop offset="1" stop-color="#646060" stop-opacity="0"/>
</radialGradient>
<linearGradient id="paint24_linear_1_2501" x1="141.389" y1="189.38" x2="205.418" y2="99.5508" gradientUnits="userSpaceOnUse">
<stop stop-color="#3B3B3B"/>
<stop offset="1" stop-color="#484848" stop-opacity="0"/>
</linearGradient>
<linearGradient id="paint25_linear_1_2501" x1="142.276" y1="184.059" x2="204.544" y2="99.5522" gradientUnits="userSpaceOnUse">
<stop stop-color="#DEDEDE"/>
<stop offset="1" stop-color="#999999"/>
</linearGradient>
<linearGradient id="paint26_linear_1_2501" x1="137.461" y1="248.572" x2="137.461" y2="271.955" gradientUnits="userSpaceOnUse">
<stop stop-color="#C2F6B8" stop-opacity="0"/>
<stop offset="1" stop-color="#8A9E72"/>
</linearGradient>
</defs>
</svg>
